<svg id="图层_1" data-name="图层 1" xmlns="http://www.w3.org/2000/svg" viewBox="0 0 174.99 46.54"><defs><style>.cls-1{fill:#41a366;}</style></defs><path class="cls-1" d="M22.79,20l.93-.38a18.52,18.52,0,0,0,6.15-4.35,14.14,14.14,0,0,0,1.4-1.77,1.62,1.62,0,0,0,.22-.41,1.43,1.43,0,0,0-.43-1.62,2.78,2.78,0,0,0-.95-.56,8.69,8.69,0,0,0-2.2-.45,17.55,17.55,0,0,0-2.05-.06c-.7,0-1.41.09-2.12.14-.35,0-.7.06-1.06.1a5.93,5.93,0,0,0-2.17.69,3.84,3.84,0,0,0-.61.45.64.64,0,0,0-.23.53c0,.12,0,.23,0,.34V32.89c0,.68-.09.55.52,1a12.06,12.06,0,0,1,1.5,1.26,4.15,4.15,0,0,1,.46.56,1.09,1.09,0,0,1,.15.35.43.43,0,0,1-.41.57H13.12a2.42,2.42,0,0,1-.47,0,.32.32,0,0,1-.24-.36.88.88,0,0,1,.1-.27,2.89,2.89,0,0,1,.33-.45A11.38,11.38,0,0,1,14.49,34c.12-.08.23-.17.34-.26a.72.72,0,0,0,.32-.61V33q0-3.19,0-6.39c0-3.65,0-7.3,0-10.95,0-1,0-1.94,0-2.9,0-.1,0-.2,0-.3a.65.65,0,0,0-.61-.69c-.34,0-.68-.06-1-.11a8.32,8.32,0,0,1-2.74-.89,4.54,4.54,0,0,1-1.18-.91,3.5,3.5,0,0,1-.86-1.73,3.82,3.82,0,0,1,0-1.43A3,3,0,0,1,10,4.83,3.92,3.92,0,0,1,11.85,4c.19,0,.39-.07.58-.11a2.16,2.16,0,0,1,.84,0,6.12,6.12,0,0,1,1.93.78,16,16,0,0,1,2.08,1.48c.36.3.71.6,1.06.92a.5.5,0,0,0,.51.1,36,36,0,0,1,3.56-.81c.7-.12,1.41-.21,2.11-.31l1.22-.15h.09c1,0,2-.15,3-.09.57,0,1.13.1,1.7.15a13.86,13.86,0,0,1,2,.35,10.25,10.25,0,0,1,3.13,1.31,7.7,7.7,0,0,1,2.59,2.76,2.32,2.32,0,0,1,.26,1.52A6.26,6.26,0,0,1,37,15.19,11.09,11.09,0,0,1,34,17.67l-1.09.58a2,2,0,0,0-.45.32.51.51,0,0,0,0,.79,2.73,2.73,0,0,0,.52.37c.45.27.91.52,1.37.78a17.37,17.37,0,0,1,3.16,2.3c.3.29.57.6.84.91a4.58,4.58,0,0,1,1,2,31.68,31.68,0,0,1,.58,3.18,16.6,16.6,0,0,1,.1,3.45,6.38,6.38,0,0,1-.63,2.41A2.78,2.78,0,0,1,38,36a7.55,7.55,0,0,1-1.91.59c-.53.1-1.06.15-1.6.2a18.91,18.91,0,0,1-2.38,0c-.64,0-1.27-.08-1.91-.13-.38,0-.76-.08-1.14-.1a10.51,10.51,0,0,1-3.62-.88,14,14,0,0,1-2.59-1.46,7.14,7.14,0,0,1-1.09-1,1.34,1.34,0,0,1-.28-.42.51.51,0,0,1,.48-.74c.24,0,.49,0,.73,0l.89.07c.85.06,1.7,0,2.55.1a24.72,24.72,0,0,0,2.72,0A8.64,8.64,0,0,0,31,32.18a5.94,5.94,0,0,0,2.59-1.5,2.84,2.84,0,0,0,.72-1.29,2.54,2.54,0,0,0-.14-1.54,4.24,4.24,0,0,0-.58-1.09,12.63,12.63,0,0,0-2.11-2.15,24.47,24.47,0,0,0-6-3.57c-.76-.32-1.53-.59-2.3-.89Z"/><path d="M82.14,19.32c0-.36.07-.7.13-1A4.85,4.85,0,0,1,83,16.51a3.52,3.52,0,0,1,2.37-1.58,5.74,5.74,0,0,1,1.49-.07,1.87,1.87,0,0,1,.46.09,4.42,4.42,0,0,1,1.58.89A3.18,3.18,0,0,1,90,18.34v.59a3.28,3.28,0,0,1-1.11,2.53,6.73,6.73,0,0,1-.65.52,1.13,1.13,0,0,0,0,.45v24a1.76,1.76,0,0,1-.25.06l-2.9-.06H83.43l-2,0-4.05-.07h-1.7l-2.47,0-4.82-.06-4.59-.07-3.07,0-4.64-.06L49.87,46l-6.18-.09-6.21-.08-2.77-.06a1.48,1.48,0,0,1-.42-.07A.65.65,0,0,1,34,44.66a1.29,1.29,0,0,1,1-.53c.58,0,1.16,0,1.74-.05L39.41,44l2.17,0,2.68-.06,1.28,0,3.83-.09c1.53,0,3.07-.05,4.6-.09l3.36-.07,1.58,0,3.57-.08,3.15-.06,2.69-.06,1.27,0,3.84-.08L78,43.21l3.32-.07,1.54,0,.36,0a.55.55,0,0,0,.08-.42V36.31c0-.16,0-.31,0-.49a1.38,1.38,0,0,0-.26,0H75.3a6,6,0,0,1-3-.81,4.24,4.24,0,0,1-2.2-3.4,28.3,28.3,0,0,1-.15-4.51c0-1.22.16-2.43.32-3.64a4,4,0,0,1,.11-.5.49.49,0,0,0-.05-.41l-.18-.34a1.09,1.09,0,0,0-.42-.46A3.6,3.6,0,0,1,68.9,21a2.91,2.91,0,0,1-.57-3,5.43,5.43,0,0,1,.39-.85.84.84,0,0,1,.18-.24,4.15,4.15,0,0,1,1.55-1,2.37,2.37,0,0,1,1.79.08,4.47,4.47,0,0,1,1.39,1,2.66,2.66,0,0,1,.77,1.75.66.66,0,0,0,.72.66h5.49l1.24,0Zm2.12,8.35A5.34,5.34,0,1,0,78.87,33,5.33,5.33,0,0,0,84.26,27.67Z"/><path d="M100.48,23.89c.17,0,.24-.11.34-.19l4.12-3.3,9.8-7.87,5.05-4,.34-.27a.37.37,0,0,1,.32-.08c.39.06.54.32.36.67a3.29,3.29,0,0,1-.36.53c-.69.88-1.39,1.76-2.1,2.63Q113.16,18.29,108,24.6l-.27.34c0,.12.09.24.14.35l4.89,10.64c0,.08.07.16.11.23a.45.45,0,0,1,0,.52.59.59,0,0,1-.53.31c-.25,0-.51-.06-.76-.06h-4.18l-4.56,0-1.53,0L101,37s0-.05,0-.06,0,0,0,0l7.2-2a1.23,1.23,0,0,0-.1-.2l-.55-.65a.42.42,0,0,0-.41-.18l-.76,0-3.53.22-.88,0a.29.29,0,0,1,.23-.16l3.07-1,1-.36a1.22,1.22,0,0,0,.24-.11,7,7,0,0,0-.73-.82l-3.54-.09s0-.06,0-.07l0,0,.11-.06,2.49-1,0,0,0-.05c-.34-.43-.75-.8-1.12-1.2l-1.18-1.22-1.16-1.2c-.38-.39-.75-.8-1.19-1.21a3.72,3.72,0,0,0-.11.67c-.11,1.16-.22,2.32-.32,3.48s-.19,2.12-.29,3.18-.21,2.12-.31,3.18a2.43,2.43,0,0,1-.17.94,2,2,0,0,1-.27,0H95.24l-.3,0c0-.09,0-.16,0-.23l0-2.09c0-1.22-.06-2.44-.08-3.66l0-1.15c0-1.19,0-2.38-.07-3.57s0-2.19-.07-3.28l0-1.15c0-1.19,0-2.38-.07-3.58s0-2.15-.07-3.23l0-1.15c0-1.19,0-2.39-.07-3.58s0-2.18-.07-3.28l0-1.14c0-1.18,0-2.36-.07-3.54,0-.61,0-1.22,0-1.83,0-.14,0-.28,0-.44l.26,0L98.9,0h1.91c.14,0,.29,0,.42.07a.86.86,0,0,1,0,.45c0,1-.06,2-.1,3,0,1.63-.11,3.26-.17,4.89s-.11,3.29-.17,4.94c0,.82,0,1.64-.08,2.47l-.09,2.46c0,.8-.06,1.59-.08,2.39l-.09,2.55,0,.51A.8.8,0,0,0,100.48,23.89Z"/><path d="M118.49,20.83h1.45c.85,0,1.7,0,2.55,0a.6.6,0,0,1,.61.37,1.06,1.06,0,0,1,.11.78l-.33,1.63a32.25,32.25,0,0,0-.62,4.59,7.65,7.65,0,0,0,.14,2.08,3.48,3.48,0,0,0,.52,1.2,2.16,2.16,0,0,0,2,1c.37,0,.74,0,1.11,0l3.4.06c.68,0,1.36,0,2.05,0a.47.47,0,0,1,.45.24c.7,1.07,1.41,2.13,2.12,3.19a.44.44,0,0,1,0,.51.77.77,0,0,1-.74.48c-.14,0-.28,0-.42,0h-4.26l-2.17,0c-1.37,0-2.73,0-4.09-.1a14.9,14.9,0,0,1-2.49-.33,6.14,6.14,0,0,1-2.07-1A2.85,2.85,0,0,1,116.65,33c.08-.85.17-1.69.27-2.54s.19-1.64.29-2.45.2-1.67.31-2.5.19-1.55.29-2.32a8.65,8.65,0,0,1,.11-.89A3.9,3.9,0,0,1,118.49,20.83Z"/><path class="cls-1" d="M45.45,21a7.75,7.75,0,0,1,1.06-.1l2,0c.2,0,.4,0,.6,0l.34,0a.3.3,0,0,1,.3.2,2.21,2.21,0,0,1,.19,1.32c-.27,1.39-.54,2.79-.78,4.18a18.42,18.42,0,0,0-.3,2.45c0,.31-.07.63-.06.94a4.41,4.41,0,0,0,.11.88A2.27,2.27,0,0,0,50,32.32a3.4,3.4,0,0,0,1.71.46c.68,0,1.36,0,2,0,1.09-.08,2.19,0,3.28-.08.31,0,.62-.06.93-.05a8.78,8.78,0,0,1,1,.09.5.5,0,0,1,.21.12,2.13,2.13,0,0,1,.16.25c.47.81.93,1.63,1.39,2.44l.09.15a.57.57,0,0,1,.09.52.94.94,0,0,1-.46.59,1.45,1.45,0,0,1-.58.1h-2.3c-.7,0-1.4,0-2.09,0-1.11.07-2.21,0-3.32,0l-1.45,0-2.08.06a4.06,4.06,0,0,1-1-.08,8,8,0,0,1-3-1.19,3.59,3.59,0,0,1-.87-.87,2.36,2.36,0,0,1-.44-1.35,7.65,7.65,0,0,1,.15-1.44l.48-3c.15-.91.31-1.82.46-2.73L45,23.56l.36-2.14A3.18,3.18,0,0,1,45.45,21Z"/><path class="cls-1" d="M64.87,35.51c.09.28-.14.5-.44.69a1.49,1.49,0,0,1-.62.26,1.3,1.3,0,0,1-1.16-.39,3.49,3.49,0,0,1-.62-.91c-.29-.63-.59-1.26-.85-1.91a40.88,40.88,0,0,1-1.67-5.31,30.85,30.85,0,0,1-.63-3.56,15,15,0,0,1-.09-2.51c0-.24,0-.48.07-.72s.1-.22.26-.2l.72.07,2,.23c.38,0,.76.08,1.14.1a.44.44,0,0,1,.43.28c.15.31.3.61.43.93a2.5,2.5,0,0,1,.18.87c0,.68.09,1.36.14,2,0,.07,0,.14,0,.21.06.76.11,1.53.16,2.29,0,.54.07,1.08.1,1.61l.15,1.91c0,.43.07.85.1,1.28s.06,1.07.1,1.61C64.79,34.72,64.83,35.06,64.87,35.51Z"/><path d="M136.88,21.28c.06.69.13,1.34.19,2,.1,1.13.21,2.26.31,3.39.07.77.13,1.53.2,2.29.07.95.16,1.9.23,2.85s.08,1.73.14,2.59c0,.5,0,1,0,1.49,0,.11,0,.22,0,.36-.2.07-.4.15-.6.2a1.24,1.24,0,0,1-1.28-.39,2.32,2.32,0,0,1-.37-.57c-.69-1.63-1.38-3.27-2-4.91-.16-.41-.23-.85-.35-1.27-.42-1.49-.69-3-1-4.53L131.85,23c0-.15-.09-.3-.13-.45a6.23,6.23,0,0,1-.15-.62,1.35,1.35,0,0,1,0-.63c.11-.37.2-.44.57-.41l2.59.2,1.66.13Z"/><path d="M0,45.07a1.59,1.59,0,0,1,.88-.23c1.47,0,2.93-.06,4.39-.09l4.59-.09,3.32-.07,1.66,0,3.53-.08,3.37-.06,2.42-.06,1.32,0,4.56-.08c.28,0,.56,0,.85,0a.94.94,0,0,1,.83.57.62.62,0,0,1-.19.83,1,1,0,0,1-.71.25H.83a.85.85,0,0,1-.65-.26A.43.43,0,0,1,0,45.07Z"/><path d="M147.42,42.31a3.51,3.51,0,1,1,3.52-3.51A3.5,3.5,0,0,1,147.42,42.31Z"/><path d="M159.24,42.31a3.51,3.51,0,1,1,3.54-3.48A3.5,3.5,0,0,1,159.24,42.31Z"/><path d="M171.44,42.31A3.48,3.48,0,0,1,168,38.78a3.52,3.52,0,1,1,7,.06A3.5,3.5,0,0,1,171.44,42.31Z"/><path d="M79,31.82a4.68,4.68,0,0,1-3.11-1.19,2.89,2.89,0,0,1-.83-1.21,2.64,2.64,0,0,1-.15-1,1,1,0,0,1,.37-.7.41.41,0,0,1,.55,0,1.21,1.21,0,0,1,.45.55,2.75,2.75,0,0,0,1.2,1.34,3.46,3.46,0,0,0,1.35.47c.34,0,.68,0,1,.07h.51l.13,0c.27,0,.53.11.62.43a.8.8,0,0,1-.37.76,3.15,3.15,0,0,1-1.4.44Z"/></svg>